<svg width="202" height="3408" viewBox="0 0 202 3408" fill="none" xmlns="http://www.w3.org/2000/svg">
<path d="M125.725 2090.84C134.517 2091.47 142.93 2094.67 149.914 2100.04C154.584 2103.97 158.251 2108.96 160.612 2114.58C162.973 2120.21 163.96 2126.32 163.491 2132.4C163.875 2138.8 162.57 2145.18 159.708 2150.91C156.846 2156.65 152.527 2161.53 147.183 2165.07C133.679 2173.51 117.914 2177.62 102.005 2176.84C92.9537 2176.84 69.4674 2175.75 55.1884 2165.07C50.0702 2161.24 45.9702 2156.22 43.2491 2150.45C40.5281 2144.67 39.269 2138.31 39.5828 2131.93C39.1431 2125.12 40.7029 2118.32 44.0709 2112.38C47.4389 2106.44 52.4686 2101.61 58.5435 2098.48C63.7714 2095.52 76.88 2089.67 105.984 2089.91L105.984 2157.27C117.574 2157.81 129.085 2155.11 139.224 2149.47C142.345 2147.72 144.935 2145.16 146.72 2142.06C148.505 2138.96 149.42 2135.43 149.367 2131.85C149.445 2128.24 148.544 2124.67 146.758 2121.53C144.972 2118.39 142.369 2115.78 139.224 2114C135.09 2111.54 130.443 2110.08 125.647 2109.71L125.725 2090.84ZM92.0953 2109.79C82.5004 2109.62 72.9704 2111.39 64.0835 2115.01C60.6964 2116.29 57.8125 2118.63 55.859 2121.68C53.9054 2124.73 52.9863 2128.32 53.2377 2131.93C53.1089 2135.5 53.9203 2139.05 55.5907 2142.21C57.2611 2145.37 59.7322 2148.04 62.7571 2149.94C71.6141 2154.8 81.6041 2157.22 91.7052 2156.96L92.0953 2109.79Z" fill="#E0E0E0"/>
<path d="M78.0501 2063.32C70.1669 2063.41 62.3963 2061.45 55.5002 2057.63C50.129 2054.08 45.834 2049.13 43.0824 2043.32C40.3309 2037.5 39.2283 2031.04 39.8947 2024.65C39.2464 2015.26 42.0178 2005.96 47.6975 1998.45C51.6961 1994.48 56.5294 1991.44 61.8467 1989.57C67.1641 1987.69 72.8323 1987.03 78.4403 1987.61L135.4 1987.61C138.052 1987.9 140.733 1987.53 143.203 1986.52C145.232 1985.2 145.466 1982.47 144.842 1979.27L159.043 1979.27C159.537 1982.42 159.85 1985.6 159.979 1988.78C160.2 1992.4 159.152 1995.99 157.014 1998.92C156.146 2000.24 154.996 2001.35 153.647 2002.17C152.298 2002.99 150.783 2003.51 149.211 2003.67C153.987 2007.42 157.776 2012.28 160.25 2017.82C162.725 2023.37 163.81 2029.43 163.412 2035.48C163.761 2040.54 162.725 2045.59 160.416 2050.09C158.106 2054.6 154.61 2058.39 150.304 2061.06C143.831 2064.89 136.353 2066.68 128.846 2066.2C123.538 2066.58 118.221 2065.6 113.4 2063.35C108.58 2061.1 104.415 2057.65 101.302 2053.34C97.0822 2046.72 94.4148 2039.23 93.4996 2031.43C92.5633 2025.82 91.939 2018.57 90.7686 2013.65C90.6677 2012.46 90.2913 2011.3 89.6686 2010.27C89.046 2009.24 88.1942 2008.37 87.1794 2007.73C84.0538 2006.63 80.7179 2006.25 77.426 2006.64C70.4647 2005.92 63.4794 2007.75 57.7631 2011.78C56.1192 2013.47 54.8629 2015.49 54.0814 2017.72C53.2998 2019.94 53.0118 2022.3 53.2375 2024.65C53.0475 2027.1 53.3501 2029.56 54.1273 2031.89C54.9046 2034.22 56.1408 2036.37 57.7631 2038.21C60.4483 2040.62 63.602 2042.44 67.0262 2043.57C70.4504 2044.69 74.0709 2045.1 77.6601 2044.76L78.0501 2063.32ZM103.097 2006.64C103.938 2009.97 104.537 2013.36 104.892 2016.77C105.331 2022.42 106.324 2028.01 107.857 2033.46C109.409 2037.89 112.474 2041.63 116.512 2044.02C120.55 2046.42 125.304 2047.31 129.938 2046.56C134.857 2046.95 139.772 2045.77 143.983 2043.2C145.696 2041.92 147.077 2040.24 148.013 2038.32C148.949 2036.39 149.413 2034.27 149.367 2032.13C149.37 2028.28 148.477 2024.47 146.757 2021.02C145.037 2017.57 142.538 2014.57 139.458 2012.25C130.456 2007.5 120.24 2005.55 110.119 2006.64L103.097 2006.64Z" fill="#E0E0E0"/>
<path d="M124.867 1939.82C130.688 1940.21 136.495 1938.88 141.565 1936C144.147 1934.17 146.219 1931.72 147.585 1928.86C148.951 1926.01 149.564 1922.86 149.368 1919.7C149.578 1916.76 149.078 1913.8 147.911 1911.09C146.743 1908.38 144.942 1905.98 142.658 1904.11C138.478 1901.43 133.575 1900.1 128.613 1900.29C123.751 1900.04 118.979 1901.66 115.27 1904.81C110.343 1911.11 107.143 1918.58 105.985 1926.49C104.306 1934.36 100.624 1941.66 95.295 1947.69C88.9061 1952.78 80.8098 1955.24 72.6671 1954.55C67.8378 1954.79 63.0191 1953.91 58.5821 1951.99C54.1451 1950.07 50.2081 1947.16 47.0741 1943.48C41.8107 1935.79 39.2075 1926.59 39.6614 1917.29C39.0487 1908.31 41.8337 1899.43 47.4641 1892.41C51.0279 1888.99 55.2526 1886.32 59.8806 1884.58C64.5086 1882.84 69.4431 1882.05 74.3837 1882.28L74.3837 1900.99C69.4725 1900.69 64.5824 1901.85 60.3387 1904.34C58.1855 1905.92 56.4589 1908.01 55.3146 1910.42C54.1703 1912.82 53.6444 1915.48 53.7843 1918.14C53.6384 1920.36 53.9435 1922.57 54.6812 1924.67C55.4189 1926.76 56.5737 1928.68 58.0759 1930.31C62.1169 1933.71 67.318 1935.41 72.589 1935.06C74.9678 1935.25 77.3602 1934.95 79.6159 1934.17C81.8717 1933.39 83.9422 1932.16 85.6976 1930.54C89.5833 1925.19 92.1255 1918.99 93.1102 1912.45C94.7547 1904 98.2448 1896.01 103.332 1889.06C106.279 1885.85 109.916 1883.34 113.97 1881.74C118.024 1880.13 122.39 1879.46 126.74 1879.78C132.104 1879.57 137.447 1880.57 142.366 1882.72C147.286 1884.87 151.654 1888.1 155.142 1892.18C161.072 1900.68 164.009 1910.91 163.491 1921.26C164.002 1930.07 161.618 1938.8 156.703 1946.13C151.553 1952.92 142.267 1958.77 124.867 1959L124.867 1939.82Z" fill="#E0E0E0"/>
<path d="M184.091 1849.77C185.834 1847.14 186.832 1844.1 186.978 1840.96C186.978 1832.61 178.161 1830.51 167.549 1828.25L158.966 1826.45L44.1881 1864.19L44.1881 1842.51L132.515 1816.55L44.1882 1795.11L44.1882 1776.09L172.543 1810.7C178.919 1811.98 185.071 1814.18 190.802 1817.25C194.445 1819.71 197.369 1823.09 199.275 1827.05C201.181 1831.01 202 1835.41 201.647 1839.79C201.609 1843.15 201.163 1846.5 200.321 1849.77L184.091 1849.77Z" fill="#E0E0E0"/>
<path d="M125.725 3226.84C134.517 3227.47 142.93 3230.67 149.914 3236.04C154.584 3239.97 158.251 3244.96 160.612 3250.58C162.973 3256.21 163.96 3262.32 163.491 3268.4C163.875 3274.8 162.57 3281.18 159.708 3286.91C156.846 3292.65 152.527 3297.53 147.183 3301.07C133.679 3309.51 117.914 3313.62 102.005 3312.84C92.9537 3312.84 69.4674 3311.75 55.1884 3301.07C50.0702 3297.24 45.9702 3292.22 43.2491 3286.45C40.5281 3280.67 39.269 3274.31 39.5828 3267.93C39.1431 3261.12 40.7029 3254.32 44.0709 3248.38C47.4389 3242.44 52.4686 3237.61 58.5435 3234.48C63.7714 3231.52 76.88 3225.67 105.984 3225.91L105.984 3293.27C117.574 3293.81 129.085 3291.11 139.224 3285.47C142.345 3283.72 144.935 3281.16 146.72 3278.06C148.505 3274.96 149.42 3271.43 149.367 3267.85C149.445 3264.24 148.544 3260.67 146.758 3257.53C144.972 3254.39 142.369 3251.78 139.224 3250C135.09 3247.54 130.443 3246.08 125.647 3245.71L125.725 3226.84ZM92.0953 3245.79C82.5004 3245.62 72.9704 3247.39 64.0835 3251.01C60.6964 3252.29 57.8125 3254.63 55.859 3257.68C53.9054 3260.73 52.9863 3264.32 53.2377 3267.93C53.1089 3271.5 53.9203 3275.05 55.5907 3278.21C57.2611 3281.37 59.7322 3284.03 62.7571 3285.94C71.6141 3290.8 81.6041 3293.22 91.7052 3292.96L92.0953 3245.79Z" fill="#E0E0E0"/>
<path d="M78.0501 3199.32C70.1669 3199.41 62.3963 3197.45 55.5002 3193.63C50.129 3190.08 45.834 3185.13 43.0824 3179.32C40.3309 3173.5 39.2283 3167.04 39.8947 3160.65C39.2464 3151.26 42.0178 3141.95 47.6975 3134.45C51.6961 3130.48 56.5294 3127.44 61.8467 3125.57C67.1641 3123.69 72.8323 3123.03 78.4403 3123.61L135.4 3123.61C138.052 3123.9 140.733 3123.53 143.203 3122.52C145.232 3121.2 145.466 3118.47 144.842 3115.27L159.043 3115.27C159.537 3118.42 159.85 3121.6 159.979 3124.78C160.2 3128.4 159.152 3131.99 157.014 3134.92C156.146 3136.24 154.996 3137.35 153.647 3138.17C152.298 3138.99 150.783 3139.51 149.211 3139.67C153.987 3143.42 157.776 3148.28 160.25 3153.82C162.725 3159.37 163.81 3165.43 163.412 3171.48C163.761 3176.54 162.725 3181.59 160.416 3186.09C158.106 3190.6 154.61 3194.39 150.304 3197.06C143.831 3200.89 136.353 3202.68 128.846 3202.2C123.538 3202.58 118.221 3201.6 113.4 3199.35C108.58 3197.1 104.415 3193.65 101.302 3189.34C97.0822 3182.72 94.4148 3175.23 93.4996 3167.43C92.5633 3161.82 91.939 3154.57 90.7686 3149.65C90.6677 3148.46 90.2913 3147.3 89.6686 3146.27C89.046 3145.24 88.1942 3144.37 87.1794 3143.73C84.0538 3142.63 80.7179 3142.25 77.426 3142.64C70.4647 3141.92 63.4794 3143.75 57.7631 3147.78C56.1192 3149.47 54.8629 3151.49 54.0814 3153.72C53.2998 3155.94 53.0118 3158.3 53.2375 3160.65C53.0475 3163.1 53.3501 3165.56 54.1273 3167.89C54.9046 3170.22 56.1408 3172.37 57.7631 3174.21C60.4483 3176.62 63.6021 3178.44 67.0262 3179.57C70.4504 3180.69 74.0709 3181.1 77.6601 3180.76L78.0501 3199.32ZM103.097 3142.64C103.938 3145.97 104.537 3149.35 104.892 3152.77C105.331 3158.42 106.324 3164.01 107.857 3169.46C109.409 3173.89 112.474 3177.63 116.512 3180.02C120.55 3182.42 125.304 3183.31 129.938 3182.56C134.857 3182.95 139.772 3181.77 143.983 3179.2C145.696 3177.92 147.077 3176.24 148.013 3174.32C148.949 3172.39 149.413 3170.27 149.367 3168.13C149.37 3164.28 148.477 3160.47 146.757 3157.02C145.037 3153.57 142.538 3150.57 139.458 3148.25C130.456 3143.5 120.24 3141.55 110.119 3142.64L103.097 3142.64Z" fill="#E0E0E0"/>
<path d="M124.867 3075.82C130.688 3076.21 136.495 3074.88 141.565 3072C144.147 3070.17 146.219 3067.72 147.585 3064.86C148.951 3062.01 149.564 3058.86 149.368 3055.7C149.578 3052.76 149.078 3049.8 147.911 3047.09C146.743 3044.38 144.942 3041.98 142.658 3040.11C138.478 3037.43 133.575 3036.1 128.613 3036.29C123.751 3036.04 118.979 3037.66 115.27 3040.81C110.343 3047.11 107.143 3054.58 105.985 3062.49C104.306 3070.36 100.624 3077.66 95.295 3083.69C88.9061 3088.78 80.8098 3091.24 72.6671 3090.55C67.8378 3090.79 63.0191 3089.91 58.5821 3087.99C54.1451 3086.07 50.2081 3083.16 47.0741 3079.48C41.8107 3071.79 39.2075 3062.59 39.6614 3053.29C39.0487 3044.31 41.8337 3035.43 47.4641 3028.41C51.0279 3024.99 55.2526 3022.32 59.8806 3020.58C64.5086 3018.84 69.4431 3018.05 74.3837 3018.28L74.3837 3036.99C69.4725 3036.69 64.5824 3037.85 60.3387 3040.34C58.1855 3041.92 56.4589 3044.01 55.3146 3046.42C54.1703 3048.82 53.6444 3051.48 53.7843 3054.14C53.6384 3056.36 53.9435 3058.57 54.6812 3060.67C55.4189 3062.76 56.5737 3064.68 58.0759 3066.31C62.1169 3069.71 67.318 3071.41 72.589 3071.06C74.9678 3071.25 77.3602 3070.95 79.6159 3070.17C81.8717 3069.39 83.9422 3068.16 85.6976 3066.54C89.5833 3061.19 92.1255 3054.99 93.1102 3048.45C94.7547 3040 98.2448 3032.01 103.332 3025.06C106.279 3021.85 109.916 3019.34 113.97 3017.74C118.024 3016.13 122.39 3015.46 126.74 3015.78C132.104 3015.57 137.447 3016.57 142.366 3018.72C147.286 3020.87 151.654 3024.1 155.142 3028.18C161.072 3036.68 164.009 3046.91 163.491 3057.26C164.002 3066.07 161.618 3074.8 156.703 3082.13C151.553 3088.92 142.267 3094.77 124.867 3095L124.867 3075.82Z" fill="#E0E0E0"/>
<path d="M184.091 2985.77C185.834 2983.14 186.832 2980.1 186.978 2976.95C186.978 2968.61 178.161 2966.51 167.549 2964.25L158.966 2962.45L44.1881 3000.19L44.1881 2978.51L132.515 2952.55L44.1882 2931.11L44.1882 2912.09L172.543 2946.7C178.919 2947.98 185.071 2950.18 190.802 2953.25C194.445 2955.71 197.369 2959.09 199.275 2963.05C201.181 2967.01 202 2971.41 201.647 2975.79C201.609 2979.15 201.163 2982.5 200.321 2985.77L184.091 2985.77Z" fill="#E0E0E0"/>
<path d="M124.867 1681.67C130.691 1682.1 136.509 1680.76 141.565 1677.85C144.152 1676.04 146.229 1673.6 147.596 1670.76C148.963 1667.92 149.573 1664.77 149.368 1661.63C149.578 1658.68 149.078 1655.73 147.911 1653.02C146.743 1650.3 144.942 1647.91 142.658 1646.04C138.501 1643.3 133.582 1641.96 128.613 1642.21C123.746 1641.93 118.959 1643.55 115.27 1646.74C110.343 1653.03 107.143 1660.5 105.985 1668.41C104.281 1676.23 100.601 1683.47 95.295 1689.46C88.889 1694.66 80.7421 1697.23 72.511 1696.64C67.6895 1696.87 62.8785 1696 58.4438 1694.09C54.0091 1692.19 50.0672 1689.3 46.9179 1685.64C41.665 1677.95 39.0631 1668.75 39.5055 1659.45C38.8922 1654.74 39.3599 1649.96 40.873 1645.47C42.3861 1640.98 44.9045 1636.89 48.2371 1633.51C51.5698 1630.14 55.6288 1627.56 60.1054 1625.99C64.582 1624.42 69.3585 1623.89 74.0716 1624.44L74.0716 1642.68C69.1529 1642.41 64.2636 1643.6 60.0266 1646.11C57.8529 1647.65 56.1095 1649.72 54.9622 1652.12C53.815 1654.52 53.302 1657.18 53.4723 1659.84C53.3292 1662.06 53.6354 1664.29 54.3727 1666.39C55.1099 1668.49 56.2633 1670.43 57.7639 1672.08C61.8049 1675.48 67.006 1677.18 72.277 1676.83C74.6558 1677.02 77.0482 1676.72 79.3039 1675.94C81.5597 1675.16 83.6301 1673.93 85.3855 1672.31C89.2552 1666.95 91.7958 1660.75 92.7981 1654.22C94.4227 1645.76 97.9147 1637.77 103.02 1630.83C105.956 1627.6 109.591 1625.09 113.648 1623.48C117.705 1621.87 122.077 1621.21 126.428 1621.55C131.788 1621.2 137.159 1622.07 142.134 1624.09C147.108 1626.12 151.557 1629.25 155.142 1633.25C161.089 1641.77 164.026 1652.03 163.491 1662.41C163.991 1671.22 161.608 1679.95 156.703 1687.28C151.553 1694.06 142.267 1699.91 124.867 1700.14L124.867 1681.67Z" fill="#E0E0E0"/>
<path d="M44.1878 1575.94L56.2819 1575.94L56.2819 1575.01C52.6982 1573.75 49.4628 1571.67 46.8407 1568.92C42.1127 1563.83 39.5889 1557.08 39.8183 1550.13C39.6892 1546.57 40.3178 1543.01 41.6627 1539.71C43.0077 1536.4 45.0384 1533.42 47.621 1530.95C51.5331 1527.73 56.2069 1525.55 61.1977 1524.64C55.7864 1523.38 50.9036 1520.46 47.2307 1516.3C42.2185 1510.4 39.6261 1502.82 39.9742 1495.09C39.8602 1491.08 40.6333 1487.09 42.2383 1483.41C43.8433 1479.73 46.2406 1476.45 49.2595 1473.8C58.7008 1466.01 72.6677 1465.23 85.1521 1465.23L159.278 1465.23L159.278 1484.25L86.5566 1484.25C80.1053 1484.1 73.6537 1484.54 67.2838 1485.58C61.4318 1486.75 53.9411 1489.63 53.9411 1499.14C54.1122 1503.05 55.4527 1506.82 57.7895 1509.96C60.1262 1513.1 63.3519 1515.47 67.0498 1516.76C74.5674 1519.36 82.5127 1520.5 90.458 1520.12L158.888 1520.12L158.888 1539.06L86.3225 1539.06C79.8931 1538.87 73.4611 1539.34 67.1277 1540.47C61.2757 1541.56 53.5509 1544.52 53.5509 1554.03C53.6903 1557.71 54.9013 1561.28 57.0356 1564.28C59.1698 1567.29 62.1347 1569.6 65.5672 1570.95C73.4659 1574.11 81.9638 1575.5 90.458 1575.01L158.888 1575.01L158.888 1593.95L44.1097 1593.95L44.1878 1575.94Z" fill="#E0E0E0"/>
<path d="M52.0668 1421.95C44.1238 1413.96 39.6658 1403.16 39.6658 1391.9C39.6658 1380.64 44.1239 1369.83 52.0668 1361.84C64.9414 1350.38 88.0374 1347.18 101.38 1347.18C114.723 1347.18 137.741 1350.38 150.849 1361.84C154.848 1365.76 158.025 1370.44 160.194 1375.6C162.362 1380.76 163.479 1386.3 163.479 1391.9C163.479 1397.49 162.362 1403.04 160.194 1408.2C158.025 1413.36 154.848 1418.03 150.849 1421.95C137.741 1433.49 115.347 1436.61 101.38 1436.61C87.4132 1436.61 64.9413 1433.49 52.0668 1421.95ZM135.244 1410.88C139.34 1409.67 142.933 1407.16 145.488 1403.74C148.043 1400.32 149.423 1396.17 149.423 1391.9C149.423 1387.63 148.043 1383.47 145.488 1380.05C142.933 1376.63 139.34 1374.13 135.244 1372.91C124.505 1368.56 112.957 1366.57 101.38 1367.06C89.8531 1366.55 78.3526 1368.55 67.6723 1372.91C63.6188 1374.17 60.0745 1376.69 57.5576 1380.11C55.0408 1383.53 53.6831 1387.66 53.6831 1391.9C53.6831 1396.14 55.0408 1400.27 57.5576 1403.69C60.0745 1407.1 63.6188 1409.62 67.6723 1410.88C78.3526 1415.25 89.8531 1417.24 101.38 1416.73C112.957 1417.22 124.505 1415.23 135.244 1410.88Z" fill="#E0E0E0"/>
<path d="M44.1889 1261.42L44.1889 1240.44L88.4303 1274.52L158.655 1236.78L158.655 1257.83L103.099 1287.15L119.095 1299.62L158.889 1299.62L158.889 1318.57L0.727524 1318.57L0.727529 1299.62L94.3604 1299.62L44.1889 1261.42Z" fill="#E0E0E0"/>
<path d="M125.725 1137.45C134.517 1138.14 142.919 1141.36 149.914 1146.73C154.578 1150.64 158.242 1155.61 160.603 1161.23C162.964 1166.84 163.954 1172.93 163.491 1179.01C163.923 1185.45 162.642 1191.9 159.778 1197.69C156.915 1203.48 152.569 1208.41 147.183 1211.99C133.653 1220.34 117.889 1224.37 102.005 1223.53C92.9539 1223.53 69.4676 1222.36 55.1886 1211.75C50.0591 1207.92 45.9524 1202.89 43.2308 1197.09C40.5092 1191.3 39.2563 1184.93 39.583 1178.54C39.1589 1171.74 40.7262 1164.96 44.0933 1159.03C47.4604 1153.11 52.4816 1148.29 58.5438 1145.17C63.7716 1142.2 76.8802 1136.36 105.984 1136.59L105.984 1203.64C117.574 1204.18 129.085 1201.48 139.224 1195.85C142.315 1194.03 144.876 1191.44 146.656 1188.32C148.436 1185.21 149.372 1181.69 149.372 1178.11C149.372 1174.53 148.436 1171 146.656 1167.89C144.876 1164.78 142.315 1162.19 139.224 1160.37C135.09 1157.92 130.443 1156.45 125.647 1156.08L125.725 1137.45ZM92.0956 1156.47C82.6402 1156.37 73.256 1158.12 64.4739 1161.62C61.1012 1162.92 58.2315 1165.26 56.2812 1168.31C54.331 1171.35 53.4017 1174.93 53.6281 1178.54C53.5012 1182.12 54.3128 1185.67 55.9824 1188.85C57.652 1192.02 60.1219 1194.7 63.1474 1196.63C72.0045 1201.49 81.9945 1203.91 92.0956 1203.64L92.0956 1156.47Z" fill="#E0E0E0"/>
<path d="M124.867 2817.67C130.691 2818.1 136.509 2816.76 141.565 2813.85C144.152 2812.04 146.229 2809.6 147.596 2806.76C148.963 2803.92 149.573 2800.77 149.368 2797.63C149.578 2794.68 149.078 2791.73 147.911 2789.02C146.743 2786.3 144.942 2783.91 142.658 2782.04C138.501 2779.3 133.582 2777.96 128.613 2778.21C123.746 2777.93 118.959 2779.55 115.27 2782.74C110.343 2789.03 107.143 2796.5 105.985 2804.41C104.281 2812.23 100.601 2819.47 95.295 2825.46C88.889 2830.66 80.7421 2833.23 72.511 2832.64C67.6895 2832.87 62.8785 2832 58.4438 2830.09C54.0091 2828.19 50.0672 2825.3 46.9179 2821.64C41.665 2813.95 39.0631 2804.75 39.5055 2795.45C38.8922 2790.74 39.3599 2785.96 40.873 2781.47C42.3861 2776.98 44.9045 2772.89 48.2371 2769.51C51.5698 2766.14 55.6288 2763.56 60.1054 2761.99C64.582 2760.42 69.3585 2759.89 74.0716 2760.44L74.0716 2778.68C69.1529 2778.41 64.2636 2779.6 60.0266 2782.11C57.8529 2783.65 56.1095 2785.72 54.9622 2788.12C53.815 2790.52 53.302 2793.18 53.4723 2795.84C53.3292 2798.06 53.6354 2800.29 54.3727 2802.39C55.1099 2804.49 56.2633 2806.43 57.7639 2808.08C61.8049 2811.48 67.006 2813.18 72.277 2812.83C74.6558 2813.02 77.0482 2812.72 79.3039 2811.94C81.5597 2811.16 83.6301 2809.93 85.3855 2808.31C89.2552 2802.95 91.7958 2796.75 92.7981 2790.22C94.4227 2781.76 97.9147 2773.77 103.02 2766.83C105.956 2763.6 109.591 2761.09 113.648 2759.48C117.705 2757.87 122.077 2757.21 126.428 2757.55C131.788 2757.2 137.159 2758.07 142.134 2760.09C147.108 2762.12 151.557 2765.25 155.142 2769.25C161.089 2777.77 164.026 2788.03 163.491 2798.41C163.991 2807.22 161.608 2815.95 156.703 2823.28C151.553 2830.06 142.267 2835.91 124.867 2836.15L124.867 2817.67Z" fill="#E0E0E0"/>
<path d="M44.1878 2711.94L56.2819 2711.94L56.2819 2711.01C52.6982 2709.75 49.4628 2707.67 46.8407 2704.92C42.1127 2699.83 39.5889 2693.08 39.8183 2686.13C39.6892 2682.57 40.3178 2679.01 41.6627 2675.71C43.0077 2672.4 45.0384 2669.42 47.621 2666.95C51.5331 2663.73 56.2069 2661.55 61.1977 2660.64C55.7864 2659.38 50.9036 2656.46 47.2307 2652.3C42.2185 2646.4 39.6261 2638.82 39.9742 2631.09C39.8602 2627.08 40.6333 2623.09 42.2383 2619.41C43.8433 2615.73 46.2406 2612.45 49.2595 2609.8C58.7008 2602.01 72.6677 2601.23 85.1521 2601.23L159.278 2601.23L159.278 2620.25L86.5566 2620.25C80.1053 2620.1 73.6537 2620.54 67.2838 2621.58C61.4318 2622.75 53.9411 2625.63 53.9411 2635.14C54.1122 2639.05 55.4527 2642.82 57.7895 2645.96C60.1262 2649.1 63.3519 2651.47 67.0498 2652.76C74.5674 2655.36 82.5127 2656.5 90.458 2656.12L158.888 2656.12L158.888 2675.06L86.3225 2675.06C79.8931 2674.87 73.4611 2675.34 67.1277 2676.47C61.2757 2677.56 53.5509 2680.52 53.5509 2690.03C53.6903 2693.71 54.9013 2697.28 57.0356 2700.28C59.1698 2703.29 62.1347 2705.6 65.5672 2706.95C73.4659 2710.11 81.9638 2711.5 90.458 2711.01L158.888 2711.01L158.888 2729.95L44.1097 2729.95L44.1878 2711.94Z" fill="#E0E0E0"/>
<path d="M52.0668 2557.95C44.1238 2549.96 39.6658 2539.16 39.6658 2527.9C39.6658 2516.64 44.1239 2505.83 52.0668 2497.84C64.9414 2486.38 88.0374 2483.18 101.38 2483.18C114.723 2483.18 137.741 2486.38 150.849 2497.84C154.848 2501.76 158.025 2506.44 160.194 2511.6C162.362 2516.76 163.479 2522.3 163.479 2527.9C163.479 2533.49 162.362 2539.04 160.194 2544.2C158.025 2549.36 154.848 2554.03 150.849 2557.95C137.741 2569.49 115.347 2572.61 101.38 2572.61C87.4132 2572.61 64.9413 2569.49 52.0668 2557.95ZM135.244 2546.88C139.34 2545.67 142.933 2543.16 145.488 2539.74C148.043 2536.32 149.423 2532.17 149.423 2527.9C149.423 2523.63 148.043 2519.47 145.488 2516.05C142.933 2512.63 139.34 2510.13 135.244 2508.91C124.505 2504.57 112.957 2502.57 101.38 2503.06C89.8531 2502.55 78.3526 2504.55 67.6723 2508.91C63.6188 2510.17 60.0745 2512.69 57.5576 2516.11C55.0408 2519.53 53.6831 2523.66 53.6831 2527.9C53.6831 2532.14 55.0408 2536.27 57.5576 2539.69C60.0745 2543.1 63.6188 2545.62 67.6723 2546.88C78.3526 2551.25 89.8531 2553.24 101.38 2552.73C112.957 2553.22 124.505 2551.23 135.244 2546.88Z" fill="#E0E0E0"/>
<path d="M44.1889 2397.42L44.1889 2376.44L88.4303 2410.52L158.655 2372.78L158.655 2393.83L103.099 2423.15L119.095 2435.62L158.889 2435.62L158.889 2454.57L0.727524 2454.57L0.727529 2435.62L94.3604 2435.62L44.1889 2397.42Z" fill="#E0E0E0"/>
<path d="M125.725 2273.45C134.517 2274.14 142.919 2277.36 149.914 2282.73C154.578 2286.64 158.242 2291.61 160.603 2297.23C162.964 2302.84 163.954 2308.93 163.491 2315.01C163.923 2321.45 162.642 2327.9 159.778 2333.69C156.915 2339.48 152.569 2344.41 147.183 2347.99C133.653 2356.34 117.889 2360.37 102.005 2359.53C92.9539 2359.53 69.4676 2358.36 55.1886 2347.75C50.0591 2343.92 45.9524 2338.89 43.2308 2333.09C40.5092 2327.3 39.2563 2320.93 39.583 2314.54C39.1589 2307.74 40.7262 2300.96 44.0933 2295.03C47.4604 2289.11 52.4816 2284.29 58.5438 2281.17C63.7716 2278.2 76.8802 2272.36 105.984 2272.59L105.984 2339.64C117.574 2340.18 129.085 2337.48 139.224 2331.85C142.315 2330.03 144.876 2327.44 146.656 2324.32C148.436 2321.21 149.372 2317.69 149.372 2314.11C149.372 2310.53 148.436 2307 146.656 2303.89C144.876 2300.78 142.315 2298.19 139.224 2296.37C135.09 2293.92 130.443 2292.45 125.647 2292.08L125.725 2273.45ZM92.0956 2292.47C82.6402 2292.37 73.256 2294.12 64.4739 2297.62C61.1012 2298.92 58.2315 2301.26 56.2812 2304.31C54.331 2307.35 53.4017 2310.93 53.6281 2314.54C53.5012 2318.12 54.3128 2321.67 55.9824 2324.85C57.652 2328.02 60.1219 2330.7 63.1474 2332.63C72.0045 2337.49 81.9945 2339.91 92.0956 2339.64L92.0956 2292.47Z" fill="#E0E0E0"/>
<path d="M125.725 955.193C134.517 955.819 142.93 959.019 149.914 964.393C154.584 968.323 158.251 973.307 160.612 978.934C162.973 984.56 163.96 990.667 163.491 996.75C163.875 1003.15 162.57 1009.53 159.708 1015.26C156.846 1021 152.527 1025.88 147.183 1029.42C133.679 1037.86 117.914 1041.97 102.005 1041.19C92.9537 1041.19 69.4674 1040.1 55.1884 1029.42C50.0702 1025.6 45.9702 1020.57 43.2491 1014.8C40.5281 1009.02 39.269 1002.66 39.5828 996.282C39.1431 989.468 40.7029 982.674 44.0709 976.732C47.4389 970.791 52.4686 965.961 58.5435 962.834C63.7714 959.871 76.88 954.024 105.984 954.257L105.984 1021.62C117.574 1022.16 129.085 1019.46 139.224 1013.83C142.345 1012.07 144.935 1009.51 146.72 1006.41C148.505 1003.31 149.42 999.782 149.367 996.204C149.445 992.591 148.544 989.023 146.758 985.88C144.972 982.737 142.369 980.135 139.224 978.35C135.09 975.894 130.443 974.426 125.647 974.061L125.725 955.193ZM92.0953 974.139C82.5004 973.967 72.9704 975.744 64.0835 979.363C60.6964 980.645 57.8125 982.982 55.859 986.03C53.9054 989.077 52.9863 992.672 53.2377 996.282C53.1089 999.854 53.9203 1003.4 55.5907 1006.56C57.2611 1009.72 59.7322 1012.39 62.7571 1014.29C71.6141 1019.15 81.6041 1021.57 91.7052 1021.31L92.0953 974.139Z" fill="#E0E0E0"/>
<path d="M78.0501 927.67C70.1669 927.757 62.3963 925.796 55.5002 921.978C50.129 918.433 45.834 913.483 43.0824 907.668C40.3309 901.853 39.2283 895.395 39.8947 888.998C39.2464 879.61 42.0178 870.306 47.6975 862.8C51.6961 858.828 56.5294 855.794 61.8467 853.92C67.1641 852.045 72.8323 851.377 78.4403 851.963L135.4 851.963C138.052 852.251 140.733 851.876 143.203 850.871C145.232 849.546 145.466 846.817 144.842 843.62L159.043 843.62C159.537 846.77 159.85 849.946 159.979 853.132C160.2 856.753 159.152 860.337 157.014 863.268C156.146 864.588 154.996 865.699 153.647 866.522C152.298 867.344 150.783 867.857 149.211 868.024C153.987 871.774 157.776 876.631 160.25 882.174C162.725 887.717 163.81 893.779 163.412 899.835C163.761 904.886 162.725 909.937 160.416 914.443C158.106 918.949 154.61 922.74 150.304 925.409C143.831 929.238 136.353 931.032 128.846 930.555C123.538 930.935 118.221 929.952 113.4 927.7C108.58 925.449 104.415 922.003 101.302 917.69C97.0822 911.068 94.4148 903.578 93.4996 895.781C92.5633 890.167 91.939 882.916 90.7686 878.004C90.6677 876.807 90.2913 875.649 89.6686 874.621C89.046 873.593 88.1942 872.723 87.1794 872.079C84.0538 870.978 80.7179 870.604 77.426 870.987C70.4647 870.271 63.4794 872.099 57.7631 876.133C56.1192 877.82 54.8629 879.845 54.0814 882.067C53.2998 884.289 53.0118 886.654 53.2375 888.998C53.0475 891.446 53.3501 893.908 54.1273 896.238C54.9046 898.568 56.1408 900.719 57.7631 902.564C60.4483 904.968 63.602 906.791 67.0262 907.918C70.4504 909.045 74.0709 909.452 77.6601 909.113L78.0501 927.67ZM103.097 870.987C103.938 874.318 104.537 877.706 104.892 881.123C105.331 886.768 106.324 892.357 107.857 897.808C109.409 902.237 112.474 905.977 116.512 908.373C120.55 910.768 125.304 911.665 129.938 910.907C134.857 911.296 139.772 910.123 143.983 907.554C145.696 906.268 147.077 904.593 148.013 902.668C148.949 900.743 149.413 898.623 149.367 896.483C149.37 892.628 148.477 888.825 146.757 885.375C145.037 881.925 142.538 878.921 139.458 876.601C130.456 871.852 120.24 869.897 110.119 870.987L103.097 870.987Z" fill="#E0E0E0"/>
<path d="M124.867 804.169C130.688 804.561 136.495 803.232 141.565 800.349C144.147 798.522 146.219 796.066 147.585 793.214C148.951 790.362 149.564 787.209 149.368 784.054C149.578 781.108 149.078 778.154 147.911 775.441C146.743 772.728 144.942 770.334 142.658 768.46C138.478 765.78 133.575 764.447 128.613 764.64C123.751 764.394 118.979 766.012 115.27 769.162C110.343 775.458 107.143 782.928 105.985 790.837C104.306 798.707 100.624 806.011 95.295 812.044C88.9061 817.135 80.8098 819.59 72.6671 818.905C67.8378 819.139 63.0191 818.263 58.5821 816.343C54.1451 814.424 50.2081 811.513 47.0741 807.834C41.8107 800.143 39.2075 790.943 39.6614 781.637C39.0487 772.662 41.8337 763.784 47.4641 756.765C51.0279 753.338 55.2526 750.673 59.8806 748.93C64.5086 747.187 69.4431 746.404 74.3837 746.629L74.3837 765.341C69.4725 765.038 64.5824 766.205 60.3387 768.694C58.1855 770.27 56.4589 772.356 55.3146 774.766C54.1703 777.175 53.6444 779.831 53.7843 782.494C53.6384 784.706 53.9435 786.925 54.6812 789.016C55.4189 791.106 56.5737 793.026 58.0759 794.657C62.1169 798.057 67.318 799.761 72.589 799.413C74.9678 799.602 77.3602 799.298 79.6159 798.52C81.8717 797.742 83.9422 796.507 85.6976 794.891C89.5833 789.542 92.1255 783.338 93.1102 776.803C94.7547 768.349 98.2448 760.363 103.332 753.412C106.279 750.199 109.916 747.695 113.97 746.088C118.024 744.481 122.39 743.813 126.74 744.134C132.104 743.92 137.447 744.925 142.366 747.072C147.286 749.219 151.654 752.453 155.142 756.531C161.072 765.033 164.009 775.262 163.491 785.613C164.002 794.421 161.618 803.155 156.703 810.485C151.553 817.268 142.267 823.116 124.867 823.35L124.867 804.169Z" fill="#E0E0E0"/>
<path d="M184.091 714.116C185.834 711.494 186.832 708.449 186.978 705.306C186.978 696.963 178.161 694.858 167.549 692.597L158.966 690.803L44.1881 728.54L44.1881 706.865L132.515 680.901L44.1882 659.46L44.1882 640.436L172.543 675.054C178.919 676.328 185.071 678.535 190.802 681.603C194.445 684.062 197.369 687.444 199.275 691.403C201.181 695.363 202 699.757 201.647 704.136C201.609 707.504 201.163 710.855 200.321 714.116L184.091 714.116Z" fill="#E0E0E0"/>
<path d="M124.867 546.017C130.691 546.446 136.509 545.115 141.565 542.196C144.152 540.392 146.229 537.952 147.596 535.111C148.963 532.27 149.573 529.125 149.368 525.979C149.578 523.033 149.078 520.08 147.911 517.367C146.743 514.654 144.942 512.26 142.658 510.385C138.501 507.653 133.582 506.315 128.613 506.565C123.746 506.279 118.959 507.902 115.27 511.087C110.343 517.383 107.143 524.854 105.985 532.762C104.281 540.577 100.601 547.825 95.295 553.814C88.889 559.012 80.7421 561.577 72.511 560.987C67.6895 561.218 62.8785 560.349 58.4438 558.444C54.0091 556.539 50.0672 553.649 46.9179 549.993C41.665 542.297 39.0631 533.101 39.5055 523.796C38.8922 519.094 39.3599 514.315 40.873 509.821C42.3861 505.327 44.9045 501.237 48.2371 497.862C51.5698 494.486 55.6288 491.915 60.1054 490.343C64.582 488.77 69.3585 488.239 74.0716 488.788L74.0716 507.033C69.1529 506.758 64.2636 507.952 60.0266 510.463C57.8529 512.002 56.1095 514.07 54.9622 516.472C53.815 518.874 53.302 521.53 53.4723 524.186C53.3292 526.409 53.6354 528.639 54.3727 530.742C55.1099 532.845 56.2633 534.778 57.7639 536.427C61.8049 539.826 67.006 541.531 72.277 541.183C74.6558 541.372 77.0482 541.068 79.3039 540.29C81.5597 539.512 83.6301 538.276 85.3855 536.661C89.2552 531.303 91.7958 525.103 92.7981 518.572C94.4227 510.113 97.9147 502.122 103.02 495.182C105.956 491.955 109.591 489.441 113.648 487.833C117.705 486.225 122.077 485.565 126.428 485.903C131.788 485.55 137.159 486.419 142.134 488.445C147.108 490.471 151.557 493.601 155.142 497.599C161.089 506.122 164.026 516.382 163.491 526.759C163.991 535.566 161.608 544.296 156.703 551.631C151.553 558.414 142.267 564.261 124.867 564.495L124.867 546.017Z" fill="#E0E0E0"/>
<path d="M44.1878 440.292L56.2819 440.292L56.2819 439.356C52.6982 438.103 49.4628 436.019 46.8407 433.275C42.1127 428.181 39.5889 421.428 39.8183 414.484C39.6892 410.918 40.3178 407.365 41.6627 404.059C43.0077 400.753 45.0384 397.769 47.621 395.304C51.5331 392.076 56.2069 389.902 61.1977 388.989C55.7864 387.729 50.9036 384.812 47.2307 380.646C42.2185 374.747 39.6261 367.17 39.9742 359.439C39.8602 355.427 40.6333 351.439 42.2383 347.76C43.8433 344.081 46.2406 340.801 49.2595 338.154C58.7008 330.357 72.6677 329.577 85.1521 329.577L159.278 329.577L159.278 348.601L86.5566 348.601C80.1053 348.451 73.6537 348.895 67.2838 349.927C61.4318 351.096 53.9411 353.981 53.9411 363.493C54.1122 367.403 55.4527 371.173 57.7895 374.314C60.1262 377.455 63.3519 379.824 67.0498 381.114C74.5674 383.712 82.5127 384.85 90.458 384.467L158.888 384.467L158.888 403.413L86.3225 403.413C79.8931 403.224 73.4611 403.694 67.1277 404.816C61.2757 405.908 53.5509 408.871 53.5509 418.383C53.6903 422.065 54.9013 425.627 57.0356 428.632C59.1698 431.637 62.1347 433.955 65.5672 435.302C73.4659 438.462 81.9638 439.846 90.458 439.356L158.888 439.356L158.888 458.303L44.1097 458.303L44.1878 440.292Z" fill="#E0E0E0"/>
<path d="M52.0668 286.305C44.1238 278.315 39.6658 267.51 39.6658 256.248C39.6658 244.986 44.1239 234.181 52.0668 226.191C64.9414 214.73 88.0374 211.533 101.38 211.533C114.723 211.533 137.741 214.73 150.849 226.191C154.848 230.111 158.025 234.788 160.194 239.949C162.362 245.11 163.479 250.651 163.479 256.248C163.479 261.845 162.362 267.386 160.194 272.547C158.025 277.708 154.848 282.385 150.849 286.305C137.741 297.844 115.347 300.963 101.38 300.963C87.4132 300.963 64.9413 297.844 52.0668 286.305ZM135.244 275.233C139.34 274.018 142.933 271.514 145.488 268.093C148.043 264.672 149.423 260.517 149.423 256.248C149.423 251.979 148.043 247.824 145.488 244.403C142.933 240.982 139.34 238.477 135.244 237.263C124.505 232.915 112.957 230.921 101.38 231.415C89.8531 230.905 78.3526 232.9 67.6723 237.263C63.6188 238.522 60.0745 241.044 57.5576 244.46C55.0408 247.876 53.6831 252.006 53.6831 256.248C53.6831 260.49 55.0408 264.62 57.5576 268.036C60.0745 271.452 63.6188 273.974 67.6723 275.233C78.3526 279.596 89.8531 281.591 101.38 281.081C112.957 281.575 124.505 279.58 135.244 275.233Z" fill="#E0E0E0"/>
<path d="M44.1889 125.768L44.1889 104.794L88.4303 138.866L158.655 101.13L158.655 122.181L103.099 151.497L119.095 163.972L158.889 163.972L158.889 182.918L0.727524 182.918L0.727529 163.972L94.3604 163.972L44.1889 125.768Z" fill="#E0E0E0"/>
<path d="M125.725 1.79873C134.517 2.48759 142.919 5.71065 149.914 11.077C154.578 14.9946 158.242 19.9653 160.603 25.5782C162.964 31.1911 163.954 37.2849 163.491 43.3558C163.923 49.8016 162.642 56.2471 159.778 62.0389C156.915 67.8308 152.569 72.7633 147.183 76.3363C133.653 84.6944 117.889 88.7206 102.005 87.8756C92.9539 87.8756 69.4676 86.7061 55.1886 76.1024C50.0591 72.2712 45.9524 67.2371 43.2308 61.4445C40.5092 55.6518 39.2563 49.2789 39.583 42.8879C39.1589 36.0866 40.7262 29.3091 44.0933 23.3831C47.4604 17.4571 52.4816 12.6391 58.5438 9.5176C63.7716 6.55481 76.8802 0.707161 105.984 0.941071L105.984 67.9937C117.574 68.532 129.085 65.8321 139.224 60.1969C142.315 58.3788 144.876 55.786 146.656 52.675C148.436 49.564 149.372 46.0426 149.372 42.4591C149.372 38.8756 148.436 35.3543 146.656 32.2433C144.876 29.1323 142.315 26.5395 139.224 24.7214C135.09 22.2657 130.443 20.7981 125.647 20.4331L125.725 1.79873ZM92.0956 20.823C82.6402 20.7176 73.256 22.4659 64.4739 25.9689C61.1012 27.2711 58.2315 29.6133 56.2812 32.6556C54.331 35.6979 53.4017 39.2821 53.6281 42.888C53.5012 46.4703 54.3128 50.0235 55.9824 53.1962C57.652 56.3688 60.1219 59.0508 63.1474 60.9766C72.0045 65.8365 81.9945 68.2582 92.0956 67.9937L92.0956 20.823Z" fill="#E0E0E0"/>
</svg>
